<svg width="177" height="57" viewBox="0 0 177 57" fill="none" xmlns="http://www.w3.org/2000/svg">
<path d="M0.0810547 56.4043H176.195V-2.28882e-05H0.0810547V56.4043Z" fill="black"/>
<path d="M38.4172 18.569C39.0324 22.7485 40.7762 32.5938 42.1095 37.0042L39.2632 37.4915C38.93 34.312 37.2118 25.3377 36.3914 21.6455C34.7249 26.1326 32.4689 33.6451 31.6484 36.9012L29.8279 37.3629C29.1097 34.1068 26.5461 25.1587 25.2384 21.6199C24.0842 26.5943 22.905 34.312 22.4945 37.0298L21.2385 37.2094C22.059 34.8505 23.9563 25.1843 24.982 19.1074L26.9304 18.569C27.6997 22.0304 29.9302 29.1323 31.5966 34.03C33.1096 29.6196 35.0843 23.5434 36.3146 19.0818L38.4172 18.569Z" fill="white"/>
<path d="M56.1919 18.5177C57.6276 23.0304 61.5251 32.7478 63.5759 37.0297L60.5506 37.2605C60.0121 35.6196 58.8329 32.1326 57.6026 28.6712C55.5768 28.5944 53.4486 28.6456 51.4746 28.6712C50.1151 32.1326 48.9359 35.3888 48.5254 37.0041L47.1665 37.2605C48.3207 35.2603 52.295 25.133 54.4487 19.1073L56.1919 18.5177ZM54.5255 20.9023C52.6793 25.6196 52.1921 26.8762 51.7048 28.1072C53.5254 28.1839 55.5768 28.2351 57.4229 28.1583C56.3716 25.2097 55.2692 22.4408 54.5255 20.9023Z" fill="white"/>
<path d="M71.8873 18.7738C71.682 25.7734 71.6309 30.235 71.9129 37.0549H69.4004C69.605 30.2094 69.5539 25.7479 69.426 18.7738H71.8873Z" fill="white"/>
<path d="M79.1873 18.7741C81.7772 18.7741 88.0075 18.8508 90.9043 18.7485C88.7506 21.9535 83.0331 32.9018 81.3666 36.6197C84.392 36.6964 89.1611 36.5679 91.4689 36.0295L91.084 37.1063H77.9819C80.0589 33.9013 86.0073 22.6716 87.597 19.2869C84.9815 19.1584 80.6485 19.2357 78.7512 20.1329L79.1873 18.7741Z" fill="white"/>
<path d="M133.3 38.2452C132.452 38.2452 132.014 38.6838 132.014 39.531C132.014 40.3783 132.452 40.7876 133.3 40.7876C134.147 40.7876 134.586 40.3783 134.586 39.5604C134.586 38.8298 133.972 38.2452 133.3 38.2452Z" fill="white"/>
<path d="M137.128 38.2452C136.281 38.2452 135.843 38.6838 135.843 39.531C135.843 40.3783 136.281 40.7876 137.128 40.7876C138.005 40.7876 138.442 40.3783 138.442 39.5604C138.442 38.8298 137.858 38.2452 137.128 38.2452Z" fill="white"/>
<path d="M149.604 32.9563C147.734 32.9563 146.566 30.941 146.566 28.0474C146.566 26.3803 146.887 25.0969 147.53 24.1323C148.262 23.0205 149.371 22.4659 150.802 22.4659C151.357 22.4659 152 22.5838 152.731 22.7872L153.023 25.0089C153.2 26.3248 153.286 27.3748 153.286 28.1653C153.286 31.3485 152.059 32.9563 149.604 32.9563ZM119.189 32.9563V29.8143C119.209 27.9326 119.277 25.9585 119.386 22.0173L119.389 21.9437H117.309V22.0173C117.312 22.1589 117.312 22.2943 117.315 22.4303C117.336 23.7992 117.354 24.9347 117.368 25.8999V25.9292C117.38 26.9293 117.395 27.7373 117.404 28.4248V34.2428C117.404 35.3221 117.141 36.3166 116.586 37.2812C115.825 38.5377 115.022 39.3788 113.532 39.9303L115.952 39.8386C117.961 38.6232 119.032 36.6467 119.186 33.8915L119.189 32.9563ZM138.385 33.1671C138.406 31.2848 138.473 25.9585 138.582 22.0173L138.585 21.9437H136.506V22.0173C136.509 22.1589 136.509 22.2943 136.511 22.4303C136.532 23.7992 136.55 24.9347 136.565 25.8999C136.579 27.056 136.594 27.9619 136.603 28.7143V33.524L138.385 33.1671ZM118.781 34.3576H148.932C152.849 34.3576 154.805 32.6936 154.805 29.3339V24.8342L155.038 21.9699C153.958 21.5893 152.761 21.3859 151.445 21.3859C149.401 21.3859 147.764 22.0585 146.536 23.3712C145.339 24.687 144.725 26.4396 144.725 28.6313C144.725 30.4425 145.164 31.8763 146.011 32.9563H141.043H118.781" fill="white"/>
<path d="M119.472 16.9105C119.472 17.6249 118.893 18.2039 118.179 18.2039C117.465 18.2039 116.886 17.6249 116.886 16.9105C116.886 16.1961 117.465 15.6171 118.179 15.6171C118.893 15.6171 119.472 16.1961 119.472 16.9105Z" fill="white"/>
</svg>
